<svg width="88" height="88" viewBox="0 0 88 88" fill="none" xmlns="http://www.w3.org/2000/svg">
<path d="M17.4167 55.6417L44.0001 35.0167L70.5834 55.6417C68.8112 60.4694 66.2604 64.8242 62.9311 68.706C59.6017 72.5878 55.7358 75.658 51.3334 77.9167V58.7583C51.3334 57.7194 50.9814 56.8492 50.2774 56.1477C49.5734 55.4461 48.7032 55.0941 47.6667 55.0917H40.3334C39.2945 55.0917 38.4231 55.4437 37.7191 56.1477C37.0151 56.8517 36.6643 57.7219 36.6667 58.7583V77.9167C32.2667 75.6556 28.4008 72.5853 25.0691 68.706C21.7373 64.8267 19.1865 60.4719 17.4167 55.6417ZM14.6667 40.7V23.4667C14.6667 21.9389 15.1104 20.5492 15.9977 19.2977C16.8851 18.0461 18.0303 17.1441 19.4334 16.5917L41.4334 8.34166C42.2889 8.03611 43.1445 7.88333 44.0001 7.88333C44.8556 7.88333 45.7112 8.03611 46.5667 8.34166L68.5667 16.5917C69.9723 17.1417 71.1187 18.0437 72.0061 19.2977C72.8934 20.5517 73.3358 21.9413 73.3334 23.4667V40.7C73.3334 41.9222 73.2723 43.1298 73.1501 44.3227C73.0278 45.5156 72.8751 46.7219 72.6917 47.9417L48.4917 29.2417C47.1473 28.2028 45.6501 27.6833 44.0001 27.6833C42.3501 27.6833 40.8528 28.2028 39.5084 29.2417L15.3084 47.9417C15.0639 46.7194 14.8953 45.5131 14.8024 44.3227C14.7095 43.1322 14.6643 41.9247 14.6667 40.7Z" fill="#421963"/>
</svg>
